<?xml version="1.0" encoding="UTF-8"?><svg id="Layer_2" xmlns="http://www.w3.org/2000/svg" viewBox="0 0 61.97 130"><defs><style>.cls-1{fill:#474747;}</style></defs><g id="Layer_2-2"><g id="OBJECTS"><g><g><path class="cls-1" d="m50.69,0s16.78,38.86-7.93,77.66C26.12,103.78,0,109.14,0,109.14c0,0,24.15-15.71,35.66-44.15,11.54-28.5-15.25-19.71-30.34-52.93,0,0,25.24,23.76,36.66,18.38C51.66,25.88,50.69,0,50.69,0Z"/><path class="cls-1" d="m50.98,68.54c.51,18.02.63,31.28-12.69,61.46,1.89-15.99,1.53-32.68.37-42.61,4.3-4.12,9.72-11.87,12.32-18.85Z"/><path class="cls-1" d="m31.92,22.89c2.25,4.41,6.55,6.72,9.62,5.16s3.74-6.41,1.49-10.82-6.55-6.72-9.62-5.16-3.74,6.41-1.49,10.82Z"/></g><path class="cls-1" d="m44.31,48.13v-.02c-.46.07-.92.14-1.39.22-13.09,2.26-22.81,9.28-21.71,15.68.67,3.86,5.13,6.61,11.44,7.69-3.7-1.39-6.16-3.57-6.64-6.34-.94-5.44,6.09-11.32,16.33-14.25h0c7.2-2.17,14.13-2.79,19.63-2.02-4.43-1.72-10.72-2.08-17.68-.97h.02Z"/></g></g></g></svg>